<mxfile host="app.diagrams.net" agent="Mozilla/5.0 (Windows NT 10.0; Win64; x64; rv:143.0) Gecko/20100101 Firefox/143.0" version="28.2.5">
  <diagram name="PÃ¡gina-1" id="hmPzd6-MISRAv3zJ79Oc">
    <mxGraphModel dx="1303" dy="746" grid="1" gridSize="10" guides="1" tooltips="1" connect="1" arrows="1" fold="1" page="1" pageScale="1" pageWidth="1654" pageHeight="1169" background="light-dark(#efe9ee, #121212)" math="0" shadow="1">
      <root>
        <mxCell id="0" />
        <mxCell id="1" parent="0" />
        <mxCell id="b1jiOyI4bibXz9lMUhJJ-25" style="edgeStyle=orthogonalEdgeStyle;rounded=0;orthogonalLoop=1;jettySize=auto;html=1;entryX=0;entryY=0.5;entryDx=0;entryDy=0;endArrow=none;endFill=0;" edge="1" parent="1" source="b1jiOyI4bibXz9lMUhJJ-1" target="b1jiOyI4bibXz9lMUhJJ-8">
          <mxGeometry relative="1" as="geometry" />
        </mxCell>
        <mxCell id="b1jiOyI4bibXz9lMUhJJ-1" value="ARBITRO" style="rounded=1;arcSize=10;whiteSpace=wrap;html=1;align=center;fillColor=#fff2cc;strokeColor=#d6b656;" vertex="1" parent="1">
          <mxGeometry x="1087" y="480" width="100" height="40" as="geometry" />
        </mxCell>
        <mxCell id="b1jiOyI4bibXz9lMUhJJ-2" value="JUGADOR" style="rounded=1;arcSize=10;whiteSpace=wrap;html=1;align=center;fillColor=#fff2cc;strokeColor=#d6b656;" vertex="1" parent="1">
          <mxGeometry x="120" y="821" width="100" height="40" as="geometry" />
        </mxCell>
        <mxCell id="b1jiOyI4bibXz9lMUhJJ-14" style="edgeStyle=orthogonalEdgeStyle;rounded=0;orthogonalLoop=1;jettySize=auto;html=1;entryX=0;entryY=0.5;entryDx=0;entryDy=0;endArrow=none;endFill=0;" edge="1" parent="1" source="b1jiOyI4bibXz9lMUhJJ-4" target="b1jiOyI4bibXz9lMUhJJ-10">
          <mxGeometry relative="1" as="geometry" />
        </mxCell>
        <mxCell id="b1jiOyI4bibXz9lMUhJJ-21" style="edgeStyle=orthogonalEdgeStyle;rounded=0;orthogonalLoop=1;jettySize=auto;html=1;entryX=0.5;entryY=0;entryDx=0;entryDy=0;endArrow=none;endFill=0;" edge="1" parent="1" source="b1jiOyI4bibXz9lMUhJJ-4" target="b1jiOyI4bibXz9lMUhJJ-12">
          <mxGeometry relative="1" as="geometry" />
        </mxCell>
        <mxCell id="b1jiOyI4bibXz9lMUhJJ-4" value="EQUIPO" style="rounded=1;arcSize=10;whiteSpace=wrap;html=1;align=center;fillColor=#fff2cc;strokeColor=#d6b656;" vertex="1" parent="1">
          <mxGeometry x="120" y="480" width="100" height="40" as="geometry" />
        </mxCell>
        <mxCell id="b1jiOyI4bibXz9lMUhJJ-5" value="HINCHA" style="rounded=1;arcSize=10;whiteSpace=wrap;html=1;align=center;fillColor=#fff2cc;strokeColor=#d6b656;" vertex="1" parent="1">
          <mxGeometry x="1087" y="821" width="100" height="40" as="geometry" />
        </mxCell>
        <mxCell id="b1jiOyI4bibXz9lMUhJJ-17" style="edgeStyle=orthogonalEdgeStyle;rounded=0;orthogonalLoop=1;jettySize=auto;html=1;entryX=0;entryY=0.5;entryDx=0;entryDy=0;endArrow=none;endFill=0;" edge="1" parent="1" source="b1jiOyI4bibXz9lMUhJJ-6" target="b1jiOyI4bibXz9lMUhJJ-11">
          <mxGeometry relative="1" as="geometry" />
        </mxCell>
        <mxCell id="b1jiOyI4bibXz9lMUhJJ-19" style="edgeStyle=orthogonalEdgeStyle;rounded=0;orthogonalLoop=1;jettySize=auto;html=1;endArrow=none;endFill=0;" edge="1" parent="1" source="b1jiOyI4bibXz9lMUhJJ-6" target="b1jiOyI4bibXz9lMUhJJ-13">
          <mxGeometry relative="1" as="geometry" />
        </mxCell>
        <mxCell id="b1jiOyI4bibXz9lMUhJJ-6" value="PARTIDO" style="rounded=1;arcSize=10;whiteSpace=wrap;html=1;align=center;fillColor=#fff2cc;strokeColor=#d6b656;" vertex="1" parent="1">
          <mxGeometry x="600" y="480" width="100" height="40" as="geometry" />
        </mxCell>
        <mxCell id="b1jiOyI4bibXz9lMUhJJ-23" style="edgeStyle=orthogonalEdgeStyle;rounded=0;orthogonalLoop=1;jettySize=auto;html=1;entryX=0;entryY=0.5;entryDx=0;entryDy=0;endArrow=none;endFill=0;" edge="1" parent="1" source="b1jiOyI4bibXz9lMUhJJ-7" target="b1jiOyI4bibXz9lMUhJJ-9">
          <mxGeometry relative="1" as="geometry" />
        </mxCell>
        <mxCell id="b1jiOyI4bibXz9lMUhJJ-7" value="ESTADIO" style="rounded=1;arcSize=10;whiteSpace=wrap;html=1;align=center;fillColor=#fff2cc;strokeColor=#d6b656;" vertex="1" parent="1">
          <mxGeometry x="600" y="821" width="100" height="40" as="geometry" />
        </mxCell>
        <mxCell id="b1jiOyI4bibXz9lMUhJJ-26" style="edgeStyle=orthogonalEdgeStyle;rounded=0;orthogonalLoop=1;jettySize=auto;html=1;entryX=0.5;entryY=0;entryDx=0;entryDy=0;exitX=1;exitY=0.5;exitDx=0;exitDy=0;endArrow=none;endFill=0;" edge="1" parent="1" source="b1jiOyI4bibXz9lMUhJJ-8" target="b1jiOyI4bibXz9lMUhJJ-1">
          <mxGeometry relative="1" as="geometry">
            <Array as="points">
              <mxPoint x="1390" y="500" />
              <mxPoint x="1390" y="460" />
              <mxPoint x="1137" y="460" />
            </Array>
          </mxGeometry>
        </mxCell>
        <mxCell id="b1jiOyI4bibXz9lMUhJJ-8" value="Reemplaza" style="shape=rhombus;perimeter=rhombusPerimeter;whiteSpace=wrap;html=1;align=center;fillColor=#dae8fc;strokeColor=#6c8ebf;" vertex="1" parent="1">
          <mxGeometry x="1280" y="475" width="90" height="50" as="geometry" />
        </mxCell>
        <mxCell id="b1jiOyI4bibXz9lMUhJJ-24" style="edgeStyle=orthogonalEdgeStyle;rounded=0;orthogonalLoop=1;jettySize=auto;html=1;entryX=0;entryY=0.5;entryDx=0;entryDy=0;endArrow=none;endFill=0;" edge="1" parent="1" source="b1jiOyI4bibXz9lMUhJJ-9" target="b1jiOyI4bibXz9lMUhJJ-5">
          <mxGeometry relative="1" as="geometry" />
        </mxCell>
        <mxCell id="b1jiOyI4bibXz9lMUhJJ-9" value="Visita" style="shape=rhombus;perimeter=rhombusPerimeter;whiteSpace=wrap;html=1;align=center;fillColor=#dae8fc;strokeColor=#6c8ebf;" vertex="1" parent="1">
          <mxGeometry x="859" y="816" width="90" height="50" as="geometry" />
        </mxCell>
        <mxCell id="b1jiOyI4bibXz9lMUhJJ-15" style="edgeStyle=orthogonalEdgeStyle;rounded=0;orthogonalLoop=1;jettySize=auto;html=1;entryX=0;entryY=0.5;entryDx=0;entryDy=0;endArrow=none;endFill=0;" edge="1" parent="1" source="b1jiOyI4bibXz9lMUhJJ-10" target="b1jiOyI4bibXz9lMUhJJ-6">
          <mxGeometry relative="1" as="geometry" />
        </mxCell>
        <mxCell id="b1jiOyI4bibXz9lMUhJJ-10" value="Juega" style="shape=rhombus;perimeter=rhombusPerimeter;whiteSpace=wrap;html=1;align=center;fillColor=#dae8fc;strokeColor=#6c8ebf;" vertex="1" parent="1">
          <mxGeometry x="350" y="475" width="90" height="50" as="geometry" />
        </mxCell>
        <mxCell id="b1jiOyI4bibXz9lMUhJJ-18" style="edgeStyle=orthogonalEdgeStyle;rounded=0;orthogonalLoop=1;jettySize=auto;html=1;endArrow=none;endFill=0;" edge="1" parent="1" source="b1jiOyI4bibXz9lMUhJJ-11" target="b1jiOyI4bibXz9lMUhJJ-1">
          <mxGeometry relative="1" as="geometry" />
        </mxCell>
        <mxCell id="b1jiOyI4bibXz9lMUhJJ-11" value="Arbitra" style="shape=rhombus;perimeter=rhombusPerimeter;whiteSpace=wrap;html=1;align=center;fillColor=#dae8fc;strokeColor=#6c8ebf;" vertex="1" parent="1">
          <mxGeometry x="859" y="475" width="90" height="50" as="geometry" />
        </mxCell>
        <mxCell id="b1jiOyI4bibXz9lMUhJJ-22" style="edgeStyle=orthogonalEdgeStyle;rounded=0;orthogonalLoop=1;jettySize=auto;html=1;entryX=0.5;entryY=0;entryDx=0;entryDy=0;endArrow=none;endFill=0;" edge="1" parent="1" source="b1jiOyI4bibXz9lMUhJJ-12" target="b1jiOyI4bibXz9lMUhJJ-2">
          <mxGeometry relative="1" as="geometry" />
        </mxCell>
        <mxCell id="b1jiOyI4bibXz9lMUhJJ-12" value="Representa" style="shape=rhombus;perimeter=rhombusPerimeter;whiteSpace=wrap;html=1;align=center;fillColor=#dae8fc;strokeColor=#6c8ebf;" vertex="1" parent="1">
          <mxGeometry x="125" y="650" width="90" height="50" as="geometry" />
        </mxCell>
        <mxCell id="b1jiOyI4bibXz9lMUhJJ-20" style="edgeStyle=orthogonalEdgeStyle;rounded=0;orthogonalLoop=1;jettySize=auto;html=1;endArrow=none;endFill=0;" edge="1" parent="1" source="b1jiOyI4bibXz9lMUhJJ-13" target="b1jiOyI4bibXz9lMUhJJ-7">
          <mxGeometry relative="1" as="geometry" />
        </mxCell>
        <mxCell id="b1jiOyI4bibXz9lMUhJJ-13" value="Emplaza" style="shape=rhombus;perimeter=rhombusPerimeter;whiteSpace=wrap;html=1;align=center;fillColor=#dae8fc;strokeColor=#6c8ebf;" vertex="1" parent="1">
          <mxGeometry x="605" y="660" width="90" height="50" as="geometry" />
        </mxCell>
      </root>
    </mxGraphModel>
  </diagram>
</mxfile>
